<svg xmlns="http://www.w3.org/2000/svg" width="1200" height="630" viewBox="0 0 1200 630" role="img" aria-labelledby="title desc">
  <title id="title">PalSU Balabac University Student Government</title>
  <desc id="desc">Official University Student Government Site</desc>
  <defs>
    <linearGradient id="bg" x1="0" y1="0" x2="1" y2="1">
      <stop offset="0" stop-color="#143b54"/>
      <stop offset="1" stop-color="#187eb7"/>
    </linearGradient>
    <linearGradient id="band" x1="0" y1="0" x2="1" y2="0">
      <stop offset="0" stop-color="#f47a31"/>
      <stop offset="0.48" stop-color="#398f58"/>
      <stop offset="1" stop-color="#187eb7"/>
    </linearGradient>
    <filter id="shadow" x="-20%" y="-20%" width="140%" height="140%"><feDropShadow dx="0" dy="16" stdDeviation="18" flood-color="#071a27" flood-opacity=".28"/></filter>
  </defs>
  <rect width="1200" height="630" fill="url(#bg)"/>
  <path d="M-50 515C156 399 292 590 509 494s360-31 741-139v330H-50z" fill="#fff"/>
  <path d="M-40 474c200-108 334 78 543-34 210-111 378-9 737-150" fill="none" stroke="url(#band)" stroke-width="26"/>
  <path d="M-40 437c200-108 334 78 543-34 210-111 378-9 737-150" fill="none" stroke="#fff" stroke-width="14"/>
  <circle cx="978" cy="190" r="126" fill="#fff" opacity=".12"/>
  <circle cx="978" cy="190" r="92" fill="#fff" opacity=".13"/>
  <g filter="url(#shadow)">
    <circle cx="166" cy="155" r="88" fill="#fff"/>
    <circle cx="166" cy="155" r="76" fill="#f47a31"/>
    <path d="M166 96l18 35 39 6-28 27 7 39-36-19-36 19 7-39-28-27 39-6z" fill="#fff"/>
    <circle cx="166" cy="155" r="28" fill="#187eb7"/>
  </g>
  <text x="285" y="155" fill="#ffd2b5" font-family="Arial, Helvetica, sans-serif" font-size="24" font-weight="700" letter-spacing="6">OFFICIAL WEBSITE</text>
  <text x="285" y="238" fill="#fff" font-family="Arial, Helvetica, sans-serif" font-size="62" font-weight="800">PALAWAN STATE UNIVERSITY</text>
  <text x="285" y="302" fill="#fff" font-family="Arial, Helvetica, sans-serif" font-size="49" font-weight="800">BALABAC CAMPUS · USG</text>
  <rect x="285" y="336" width="500" height="7" rx="3.5" fill="url(#band)"/>
  <text x="285" y="397" fill="#d5e7f0" font-family="Arial, Helvetica, sans-serif" font-size="28">University Student Government Site</text>
  <text x="285" y="441" fill="#d5e7f0" font-family="Arial, Helvetica, sans-serif" font-size="22">Leadership · Service · Student Voice</text>
  <text x="82" y="575" fill="#183044" font-family="Arial, Helvetica, sans-serif" font-size="23" font-weight="700">Announcements  •  Activities  •  Student Services  •  Transparency</text>
</svg>
